<svg width="80" height="80" viewBox="0 0 80 80" fill="none" xmlns="http://www.w3.org/2000/svg">
<g clip-path="url(#clip0_119_651)">
<path d="M62.5858 35.8856C67.7371 38.3608 71.7954 43.954 71.7954 50.0484C71.7974 51.9026 71.4628 53.7418 70.8079 55.4765L76.4272 65.2039C76.7819 62.3197 76.9278 59.4137 76.8638 56.5085C76.7625 51.5868 75.6283 48.9046 75.8274 48.5789C76.3923 47.6569 78.8257 52.3464 78.8257 52.3464C78.687 50.1219 78.0904 47.95 77.0732 45.9668C76.0561 43.9836 74.6404 42.2319 72.9147 40.8213C68.6696 37.3175 62.5858 35.8856 62.5858 35.8856Z" fill="#003258"/>
<path d="M74.9281 36.5142C74.9281 38.0858 74.0192 39.3632 72.8937 39.3632C71.7683 39.3632 70.8602 38.0867 70.8602 36.5142C70.8602 34.9417 71.7709 33.6635 72.8937 33.6635C74.0165 33.6635 74.9281 34.9409 74.9281 36.5142Z" fill="#003258"/>
<path d="M43.9727 31.6012C43.9727 33.7639 42.7215 35.5162 41.1787 35.5162C39.6359 35.5162 38.3848 33.7639 38.3848 31.6012C38.3848 29.4385 39.6359 27.687 41.1787 27.687C42.7215 27.687 43.9727 29.4394 43.9727 31.6012Z" fill="#003258"/>
<path d="M49.035 34.1577C36.3181 35.7563 26.8937 50.0484 26.8937 50.0484C26.8937 50.0484 32.8684 45.2183 33.7354 45.9936C34.6024 46.7689 33.9546 50.0911 35.7305 54.4165C40.9692 67.1457 56.0976 65.5322 56.0976 65.5322C53.8726 65.5304 51.674 65.049 49.6518 64.1209C47.6296 63.1927 45.8312 61.8396 44.379 60.1537C42.9269 58.4679 41.8552 56.4888 41.237 54.3514C40.6187 52.2139 40.4684 49.9683 40.7963 47.7676C41.1242 45.5668 41.9226 43.4626 43.1371 41.5982C44.3516 39.7339 45.9536 38.1532 47.8341 36.9638C49.7146 35.7745 51.8294 35.0044 54.0344 34.7061C56.2393 34.4078 58.4827 34.5882 60.6116 35.2351C60.6116 35.2351 57.8177 33.0523 49.0359 34.1568" fill="#003258"/>
<path d="M80 74.1035L70.0063 56.8534C70.0063 56.8534 65.7586 70.4557 47.8222 66.7344C45.069 65.9848 42.4907 64.6994 40.235 62.9519C37.9793 61.2043 36.0904 59.029 34.6766 56.5504C32.0031 51.6566 33.146 49.0417 32.5925 48.6156C31.4906 47.7625 25.5631 52.507 24.7589 52.6581C24.1827 52.7672 27.1434 45.3239 33.1958 40.2529C37.33 36.7875 38.6458 36.1606 38.6458 36.1606C37.4771 34.7515 36.8528 32.9697 36.8865 31.1393C37.0061 28.3759 38.6938 25.9879 41.2058 25.9879C43.5405 25.9879 44.6022 28.1585 44.8729 28.8002C45.3237 30.2302 45.3929 31.7532 45.0737 33.2182C46.7869 32.7528 48.5328 32.4177 50.2966 32.2159C52.1889 32.1176 54.0858 32.1597 55.9719 32.3416L40.2261 5L0 74.1035H80Z" fill="#91B512"/>
<path d="M56.4128 58.9436C57.6851 58.9357 58.9542 58.8188 60.2065 58.5944C60.9992 57.0264 61.5693 55.3554 61.9004 53.6299C60.1188 54.1579 58.2719 54.4333 56.4137 54.448L56.4128 58.9436Z" fill="#003258"/>
<path d="M56.4128 54.0009C58.3039 53.9851 60.1824 53.6924 61.9886 53.1322C62.1735 52.0388 62.267 50.932 62.2679 49.8231C62.2675 48.7675 62.1843 47.7137 62.0191 46.6711C60.1798 47.0932 58.2999 47.3128 56.4128 47.326V54.0009Z" fill="#003258"/>
<path d="M56.4128 37.0023V41.3059C57.6831 41.2962 58.9511 41.1941 60.2065 41.0003C59.5088 39.555 58.5937 38.2252 57.4929 37.0573C57.1375 37.0206 56.7761 37.0084 56.4128 37.0023Z" fill="#003258"/>
<path d="M56.4128 46.8754C58.2736 46.8618 60.1272 46.6443 61.9405 46.2267C61.6444 44.5665 61.1325 42.9521 60.4178 41.4246C59.0937 41.6355 57.7554 41.7456 56.4146 41.7538L56.4128 46.8754Z" fill="#003258"/>
<path d="M66.9225 56.6657C66.465 56.9276 65.9123 57.207 65.2985 57.4856C64.7533 58.5029 64.1002 59.4587 63.3506 60.3363C64.7748 59.3655 65.9895 58.1185 66.9225 56.6692" fill="#003258"/>
<path d="M56.4128 62.5252C56.7813 62.519 57.1489 62.5051 57.5095 62.4675C58.4765 61.4636 59.2969 60.3281 59.9463 59.0947C58.7779 59.2847 57.5966 59.3842 56.4128 59.3924V62.5252Z" fill="#003258"/>
<path d="M67.4115 55.8607C68.4317 53.9913 68.9649 51.8951 68.9621 49.7655V49.7454C68.4024 50.2535 67.8065 50.7204 67.1792 51.1424C67.0217 53.1216 66.4976 55.0543 65.6338 56.8421C66.2435 56.5456 66.8356 56.2141 67.4071 55.8493L67.4115 55.8607Z" fill="#003258"/>
<path d="M63.6012 40.2162C63.8631 40.1359 64.1251 40.0625 64.38 39.9752C63.6268 39.3469 62.8039 38.8073 61.9274 38.367C62.5235 38.9477 63.0825 39.5654 63.6012 40.2162Z" fill="#003258"/>
<path d="M58.2088 37.1656C59.1895 38.3103 60.0188 39.5766 60.6762 40.933C61.5082 40.7853 62.3318 40.5938 63.1436 40.3594C62.4012 39.4306 61.5637 38.582 60.6448 37.8274L60.6579 37.8099C59.8667 37.5129 59.0477 37.2962 58.2132 37.1629" fill="#003258"/>
<path d="M64.7659 40.3254C64.4795 40.4275 64.1844 40.5052 63.8928 40.5952C64.8745 41.8717 65.6733 43.2791 66.2659 44.7765C66.7271 44.571 67.1811 44.3497 67.6271 44.1129C66.917 42.6831 65.9463 41.3983 64.765 40.3245" fill="#003258"/>
<path d="M68.9315 49.1525C68.8574 47.554 68.4818 45.984 67.8244 44.525C67.4018 44.7503 66.926 44.9817 66.4143 45.2113C66.9487 46.6887 67.2255 48.2468 67.2324 49.8179C67.2324 50.0798 67.2123 50.3295 67.201 50.5827C67.8172 50.1573 68.3961 49.6804 68.9315 49.1569" fill="#003258"/>
<path d="M64.6079 57.7912C63.2836 58.3281 61.9088 58.7312 60.5042 58.9943C59.8826 60.2031 59.1184 61.3331 58.228 62.3602C59.5262 62.1517 60.7841 61.7422 61.9562 61.1465L61.9457 61.1343C62.9984 60.1626 63.8957 59.0351 64.6061 57.7912" fill="#003258"/>
<path d="M64.9693 57.1398C65.9007 55.3758 66.4838 53.449 66.6868 51.4646C65.3403 52.3098 63.8949 52.9861 62.3832 53.478C62.0744 55.2104 61.5316 56.8929 60.7697 58.4792C62.2131 58.184 63.6209 57.7359 64.9693 57.1424" fill="#003258"/>
<path d="M66.7837 49.8135C66.7768 48.3054 66.5128 46.8096 66.0031 45.3903C64.8532 45.8719 63.6677 46.2639 62.4574 46.5629C62.8026 48.6856 62.8088 50.8496 62.4757 52.9742C63.9795 52.4641 65.4121 51.7647 66.7392 50.8927C66.7627 50.5382 66.7837 50.1828 66.7837 49.8135Z" fill="#003258"/>
<path d="M63.437 40.7392C62.5934 40.9895 61.7368 41.1935 60.8709 41.3504C61.5727 42.8693 62.0788 44.4712 62.377 46.1176C63.5644 45.8229 64.7271 45.4364 65.8546 44.9616C65.2574 43.444 64.443 42.0211 63.437 40.7375" fill="#003258"/>
<path d="M45.5643 49.8501C45.5643 50.2186 45.5844 50.5713 45.608 50.9232C46.9362 51.7795 48.3653 52.4681 49.8627 52.9733C49.5322 50.8506 49.5375 48.6891 49.8784 46.5681C48.6751 46.2722 47.4957 45.8863 46.3501 45.4138C45.837 46.8369 45.5712 48.3374 45.5643 49.8501Z" fill="#003258"/>
<path d="M44.7271 44.1583C45.1339 44.3722 45.5914 44.5888 46.0821 44.8053C46.6844 43.2901 47.4965 41.867 48.4945 40.5777C48.2055 40.4904 47.913 40.4101 47.6302 40.3105C46.4278 41.3983 45.4427 42.7034 44.7271 44.1583Z" fill="#003258"/>
<path d="M43.4383 49.2573C43.9689 49.7536 44.5372 50.2078 45.1382 50.6159C45.126 50.3618 45.1077 50.1138 45.1077 49.851C45.1152 48.2755 45.3944 46.713 45.9328 45.2322C45.4577 45.0261 44.99 44.8033 44.5306 44.5643C43.8689 46.0438 43.4981 47.6377 43.4383 49.2573Z" fill="#003258"/>
<path d="M48.7879 40.197C49.3025 39.5538 49.8565 38.9432 50.4469 38.3687C49.5785 38.8048 48.7622 39.3375 48.0135 39.9569C48.2693 40.0442 48.5286 40.1184 48.7862 40.197" fill="#003258"/>
<path d="M44.9453 55.8249C45.4968 56.1731 46.0666 56.4913 46.6522 56.7783C45.8174 55.0168 45.312 53.1173 45.161 51.1738C44.5494 50.7719 43.966 50.3288 43.4147 49.8475C43.4242 51.9354 43.9491 53.9886 44.9427 55.8249" fill="#003258"/>
<path d="M52.1249 40.9819C53.3939 41.1825 54.6759 41.2896 55.9605 41.3024V37.0023C55.572 37.0101 55.1852 37.0285 54.8063 37.0695C53.7185 38.2295 52.8142 39.5489 52.1249 40.9819Z" fill="#003258"/>
<path d="M55.9614 41.752C54.6062 41.7408 53.2539 41.6258 51.9163 41.408C51.2007 42.9422 50.6888 44.5633 50.3936 46.2302C52.2203 46.6486 54.0874 46.8656 55.9614 46.8772V41.752Z" fill="#003258"/>
<path d="M48.8507 60.2053C48.1323 59.3475 47.5061 58.4166 46.9823 57.4279C46.4051 57.166 45.8795 56.8997 45.4412 56.65C46.3367 58.0443 47.4929 59.2527 48.8464 60.2088" fill="#003258"/>
<path d="M55.9606 62.5278V59.3916C54.7563 59.3804 53.5548 59.2756 52.3668 59.0781C53.0124 60.3143 53.8299 61.4528 54.795 62.4597C55.1791 62.5016 55.5677 62.5217 55.9606 62.5278Z" fill="#003258"/>
<path d="M51.5417 58.4468C50.7902 56.8668 50.2545 55.1929 49.9491 53.4701C48.4417 52.9836 46.9981 52.3182 45.649 51.4881C45.8435 53.4389 46.4065 55.3351 47.308 57.076C48.6675 57.681 50.0872 58.1405 51.5434 58.4468" fill="#003258"/>
<path d="M55.9614 47.3277C54.0614 47.3162 52.1683 47.0972 50.3159 46.6747C49.9759 48.8128 49.9856 50.992 50.3447 53.127C52.1651 53.6872 54.0569 53.9813 55.9614 54.0001V47.3277Z" fill="#003258"/>
<path d="M54.0763 62.3488C53.1865 61.3153 52.4243 60.1785 51.8062 58.9628C50.3888 58.6894 49.0017 58.277 47.665 57.7318C48.3669 58.9794 49.2612 60.1085 50.3149 61.0775L50.3045 61.0906C51.4874 61.706 52.7609 62.1306 54.0763 62.3488Z" fill="#003258"/>
<path d="M51.4649 41.3242C50.6176 41.1662 49.7792 40.9643 48.9529 40.7191C47.9315 42.0155 47.1039 43.4534 46.496 44.9878C47.6196 45.453 48.7769 45.8324 49.9579 46.1228C50.2546 44.4647 50.761 42.851 51.4649 41.3207" fill="#003258"/>
<path d="M49.248 40.3402C50.042 40.5697 50.8472 40.7585 51.6605 40.906C52.3083 39.5644 53.1255 38.3115 54.0921 37.1778C53.2857 37.3112 52.4941 37.5226 51.7286 37.809L51.739 37.8239C50.8244 38.5751 49.9896 39.4177 49.248 40.3402Z" fill="#003258"/>
<path d="M55.9614 54.4497C54.0896 54.4326 52.2293 54.1555 50.4337 53.6264C50.7592 55.3422 51.3207 57.0047 52.1022 58.5665C53.3754 58.8022 54.6666 58.9272 55.9614 58.9402V54.4497Z" fill="#003258"/>
</g>
<defs>
<clipPath id="clip0_119_651">
<rect width="80" height="80" fill="white"/>
</clipPath>
</defs>
</svg>
